<svg width="128" height="128" viewBox="0 0 128 128" fill="none" xmlns="http://www.w3.org/2000/svg">
  <rect width="128" height="128" rx="64" fill="#3B82F6"/>
  <path d="M64 108C88.3005 108 108 88.3005 108 64C108 39.6995 88.3005 20 64 20C39.6995 20 20 39.6995 20 64C20 88.3005 39.6995 108 64 108Z" stroke="white" stroke-width="6" stroke-linecap="round" stroke-linejoin="round"/>
  <path d="M64 84C75.0457 84 84 75.0457 84 64C84 52.9543 75.0457 44 64 44C52.9543 44 44 52.9543 44 64C44 75.0457 52.9543 84 64 84Z" fill="#0D9488"/>
  <circle cx="48" cy="48" r="6" fill="white"/>
  <circle cx="80" cy="48" r="6" fill="white"/>
  <circle cx="80" cy="80" r="6" fill="white"/>
  <circle cx="48" cy="80" r="6" fill="white"/>
</svg>